# xmcd
#
# Track frame offsets:
#	150
#	28916
#	48205
#	63685
#	80306
#	94414
#	123376
#	142529
#
# Disc length: 2151 seconds
#
# Revision: 0
# Processed by: cddbd v1.5.2PL0 Copyright (c) Steve Scherf et al.
# Submitted via: audiograbber 1.83.01
#
DISCID=65086508
DTITLE=The Atlanta Cafe Band - Brothers
DYEAR=2009
DGENRE=Blues
TTITLE0=Bluesman
TTITLE1=Mewie
TTITLE2=Talk To You
TTITLE3=Put A Boogie In Your Pocket
TTITLE4=Going Down To Memphis
TTITLE5=Blues For Nancy
TTITLE6=School For The Blues
TTITLE7=Stevie Ray
EXTD=
EXTT0=
EXTT1=
EXTT2=
EXTT3=
EXTT4=
EXTT5=
EXTT6=
EXTT7=
PLAYORDER=
